Coordinates
version=1
nRows=20
nColumns=38
inDegrees=no

Units are S.I. units (second, meters, Newtons, ...)
If the header above contains a line with 'inDegrees', this indicates whether rotational values are in degrees (yes) or radians (no).

endheader
time	pelvis_tilt	pelvis_list	pelvis_rotation	pelvis_tx	pelvis_ty	pelvis_tz	hip_flexion_r	hip_adduction_r	hip_rotation_r	knee_angle_r	ankle_angle_r	subtalar_angle_r	mtp_angle_r	hip_flexion_l	hip_adduction_l	hip_rotation_l	knee_angle_l	ankle_angle_l	subtalar_angle_l	mtp_angle_l	lumbar_extension	lumbar_bending	lumbar_rotation	arm_flex_r	arm_add_r	arm_rot_r	elbow_flex_r	pro_sup_r	wrist_flex_r	wrist_dev_r	arm_flex_l	arm_add_l	arm_rot_l	elbow_flex_l	pro_sup_l	wrist_flex_l	wrist_dev_l
0	0.53881	1.27275	1.23081	0.759194	-0.684244	1.01237	0.558089	0.104129	-0.122652	0.34512	-0.0824317	0	0	0.304362	-0.14547	-0.0752966	1.11541	-0.380236	0	0	0.0515888	0.153974	-0.113507	-0.115654	-0.339205	0.546609	0.459132	0.722611	0	0	-0.0974082	-0.504539	0.249843	0.83429	1.18897	0	0
0.01	0.527213	1.27384	1.23712	0.758857	-0.67254	1.01344	0.543878	0.106198	-0.111923	0.34322	-0.07371	0	0	0.333811	-0.142887	-0.0675156	1.1543	-0.346228	0	0	0.0486901	0.149672	-0.106628	-0.112931	-0.338553	0.547015	0.463047	0.720606	0	0	-0.0974775	-0.502625	0.256784	0.828027	1.18545	0	0
0.02	0.521181	1.27481	1.24022	0.758247	-0.659932	1.01496	0.52557	0.108771	-0.105628	0.336002	-0.065797	0	0	0.360652	-0.142028	-0.0614916	1.18505	-0.303348	0	0	0.0483956	0.147234	-0.101635	-0.111694	-0.336521	0.546515	0.462399	0.718739	0	0	-0.0967214	-0.500213	0.268879	0.816903	1.18271	0	0
0.03	0.512701	1.27671	1.24473	0.757602	-0.647226	1.01679	0.507468	0.110517	-0.0978902	0.333514	-0.0604996	0	0	0.385869	-0.140586	-0.0601209	1.20896	-0.258822	0	0	0.047263	0.143723	-0.0956146	-0.110341	-0.334184	0.546209	0.461079	0.717	0	0	-0.0955018	-0.498198	0.281887	0.805044	1.18069	0	0
0.04	0.504354	1.28	1.25004	0.756733	-0.634393	1.01892	0.487526	0.111342	-0.0962193	0.321623	-0.0558221	0	0	0.408985	-0.138307	-0.0600998	1.22584	-0.223826	0	0	0.0449308	0.139902	-0.0914604	-0.10832	-0.331816	0.546583	0.458909	0.716201	0	0	-0.0953213	-0.495207	0.291454	0.792539	1.18048	0	0
0.05	0.493957	1.28393	1.25725	0.75579	-0.621518	1.0211	0.467761	0.110906	-0.0911886	0.313565	-0.0518861	0	0	0.430815	-0.134673	-0.0605321	1.23657	-0.185514	0	0	0.0425865	0.135272	-0.0870988	-0.107078	-0.329689	0.546647	0.457068	0.715304	0	0	-0.0949445	-0.492352	0.301384	0.779482	1.18095	0	0
0.06	0.482708	1.28995	1.26181	0.755129	-0.608774	1.02357	0.444862	0.110981	-0.0845823	0.303436	-0.0491588	0	0	0.448667	-0.132726	-0.0672971	1.24002	-0.149565	0	0	0.0368294	0.130098	-0.0793307	-0.105027	-0.328138	0.546884	0.455905	0.714803	0	0	-0.0935441	-0.489412	0.310553	0.766304	1.18166	0	0
0.07	0.47015	1.29631	1.26937	0.754177	-0.595969	1.02588	0.420133	0.109157	-0.0809069	0.292388	-0.0469368	0	0	0.465392	-0.130257	-0.0743848	1.23738	-0.117698	0	0	0.0315246	0.124547	-0.0733291	-0.104218	-0.327424	0.546242	0.456164	0.714878	0	0	-0.0928978	-0.486257	0.318122	0.753739	1.18185	0	0
0.08	0.459038	1.30041	1.27654	0.753017	-0.583258	1.02798	0.398382	0.107358	-0.0788552	0.285171	-0.0490892	0	0	0.483992	-0.128454	-0.0794296	1.22971	-0.0965181	0	0	0.0281778	0.120321	-0.0693112	-0.103471	-0.327589	0.545738	0.456891	0.715547	0	0	-0.094191	-0.482095	0.321812	0.742302	1.1813	0	0
0.09	0.446966	1.30675	1.28198	0.752061	-0.570543	1.03026	0.371718	0.105775	-0.0791448	0.26752	-0.0522232	0	0	0.497925	-0.128367	-0.089971	1.21567	-0.0709621	0	0	0.0225883	0.115736	-0.0623495	-0.102947	-0.328389	0.544616	0.45814	0.717223	0	0	-0.0936471	-0.477006	0.325909	0.728314	1.17939	0	0
0.1	0.437209	1.31089	1.28757	0.750842	-0.557877	1.03217	0.347009	0.104216	-0.0834065	0.250625	-0.0548977	0	0	0.513961	-0.128323	-0.0970457	1.19838	-0.0556742	0	0	0.0188674	0.112163	-0.058337	-0.102682	-0.329676	0.543255	0.45966	0.718944	0	0	-0.0952124	-0.472315	0.327499	0.71738	1.17671	0	0
0.11	0.426319	1.32022	1.2907	0.749905	-0.545194	1.03441	0.315246	0.102093	-0.0821878	0.229251	-0.0540488	0	0	0.521655	-0.130428	-0.114186	1.17396	-0.0361177	0	0	0.0085885	0.10728	-0.0500504	-0.102508	-0.331888	0.539291	0.463751	0.722409	0	0	-0.0937738	-0.467455	0.330144	0.705064	1.17068	0	0
0.12	0.423268	1.33365	1.28494	0.748983	-0.532701	1.03661	0.28005	0.100582	-0.0800907	0.213452	-0.0552937	0	0	0.523278	-0.1352	-0.135514	1.14643	-0.0192963	0	0	-0.0153423	0.0965142	-0.0413885	-0.0923392	-0.329152	0.543906	0.460367	0.725591	0	0	-0.101146	-0.471684	0.318341	0.719576	1.16821	0	0
0.13	0.41131	1.34271	1.28836	0.747887	-0.520106	1.03835	0.250041	0.0976112	-0.0776185	0.199518	-0.0556905	0	0	0.528605	-0.138698	-0.157625	1.11347	-0.00940593	0	0	-0.0256619	0.0904178	-0.0329981	-0.0917071	-0.332626	0.543607	0.465275	0.727275	0	0	-0.102318	-0.467819	0.316082	0.713196	1.16538	0	0
0.14	0.402676	1.35345	1.28615	0.746806	-0.507508	1.04007	0.218516	0.0949661	-0.08079	0.185345	-0.0579232	0	0	0.52957	-0.14496	-0.186576	1.07564	-0.000450338	0	0	-0.03955	0.0850321	-0.0210379	-0.0923946	-0.338082	0.539969	0.47394	0.730706	0	0	-0.101294	-0.463927	0.315979	0.707455	1.1613	0	0
0.15	0.394692	1.36268	1.28479	0.745759	-0.494707	1.04145	0.190151	0.0923875	-0.0873203	0.169116	-0.061738	0	0	0.53069	-0.152337	-0.217629	1.03416	0.00408792	0	0	-0.0507544	0.0800433	-0.0109435	-0.0940099	-0.342889	0.534979	0.481719	0.736971	0	0	-0.100843	-0.460543	0.316977	0.701135	1.15652	0	0
0.16	0.387005	1.37276	1.28208	0.74488	-0.481908	1.0427	0.160967	0.0895747	-0.0917549	0.154583	-0.0650548	0	0	0.528702	-0.161498	-0.25529	0.987924	0.00280921	0	0	-0.0633536	0.0746195	0.000217322	-0.095288	-0.34725	0.527998	0.488645	0.742775	0	0	-0.0995383	-0.457227	0.31784	0.694981	1.15126	0	0
0.17	0.377891	1.38219	1.28148	0.743984	-0.469077	1.04365	0.13176	0.086161	-0.0972021	0.142035	-0.0666451	0	0	0.52561	-0.169577	-0.293917	0.936367	-0.00378385	0	0	-0.0749052	0.0690161	0.0104644	-0.0967525	-0.351359	0.520606	0.495146	0.749437	0	0	-0.0981451	-0.454394	0.319722	0.68902	1.147	0	0
0.18	0.367958	1.3904	1.28226	0.742966	-0.456337	1.04427	0.103529	0.0822716	-0.102355	0.130678	-0.0672188	0	0	0.522052	-0.174773	-0.329107	0.879872	-0.0138287	0	0	-0.0850321	0.0637222	0.0200108	-0.098256	-0.355794	0.513562	0.501727	0.757388	0	0	-0.096329	-0.451685	0.322934	0.682754	1.14361	0	0
0.19	0.357274	1.39628	1.28412	0.741869	-0.443744	1.04445	0.0792537	0.0783697	-0.10585	0.120657	-0.0678665	0	0	0.519391	-0.176773	-0.357942	0.81907	-0.0237638	0	0	-0.0924101	0.0589718	0.0287125	-0.099126	-0.360329	0.508603	0.50713	0.764581	0	0	-0.0946684	-0.448891	0.326279	0.676321	1.14126	0	0
